<?xml version="1.0" encoding="utf-8"?>
<?xml-stylesheet type="text/xsl" href="rss1.xsl"?>
<rss version="2.0" xmlns:atom="http://www.w3.org/2005/Atom" xmlns:content="http://purl.org/rss/1.0/modules/content/" xmlns:dc="http://purl.org/dc/elements/1.1/" xmlns:media="http://search.yahoo.com/mrss/">
<channel>
 <title>Getty</title>
 <link>http://www.gettyimg.com/</link>
 <atom:link href="http://www.gettyimg.com/" rel="self" type="application/rss+xml" />

 
                <item>
                <title><![CDATA[【PRORES HD】Conan Gray - Yours [Master ProRes 1080i] - 2022]]></title>
                <link><![CDATA[https://sharemania.us/threads/conan-gray-yours-master-prores-1080i-2022.222017/]]></link>
                <description><![CDATA[<article>
<blockquote class="messageText SelectQuoteContainer ugc baseHtml">
<div style="text-align: center"><img src="https://i.ibb.co/Csv1gYs/Conan-Gray-Yours-Master-Pro-Res-1080i-mp4.png" class="bbCodeImage LbImage" alt="[​IMG]" data-url="https://i.ibb.co/Csv1gYs/Conan-Gray-Yours-Master-Pro-Res-1080i-mp4.png" style=""> <br>
<br>
<div class="ToggleTriggerAnchor bbCodeSpoilerContainer">
<button type="button" class="button bbCodeSpoilerButton ToggleTrigger Tooltip JsOnly" data-target="> .SpoilerTarget"><span>Spoiler: <span class="SpoilerTitle">Mediainfo</span></span></button>
<div class="SpoilerTarget bbCodeSpoilerText"><b>General</b><br>
Complete name :Conan Gray - Yours [Master ProRes 1080i].mp4<br>
Format : MPEG-4<br>
Format profile : QuickTime<br>
Codec ID : qt 0000.00 (qt )<br>
File size : 4.45 GiB<br>
Duration : 3 min 20 s<br>
Overall bit rate mode : Variable<br>
Overall bit rate : 190 Mb/s<br>
Frame rate : 24.000 FPS<br>
Encoded date : 2022-05-18 17:25:09 UTC<br>
Tagged date : 2022-05-18 17:25:21 UTC<br>
Writing library : Apple QuickTime<br>
TIM : 00:00:00:00<br>
TSC : 24<br>
TSZ : 1<br>
<br>
<b>Video</b><br>
ID : 1<br>
Format : ProRes<br>
Format version : Version 0<br>
Format profile : 422 HQ<br>
Codec ID : apch<br>
Duration : 3 min 20 s<br>
Bit rate mode : Variable<br>
Bit rate : 188 Mb/s<br>
Width : 1 920 pixels<br>
Height : 1 080 pixels<br>
Display aspect ratio : 16:9<br>
Frame rate mode : Constant<br>
Frame rate : 24.000 FPS<br>
Color space : YUV<br>
Chroma subsampling : 4:2:2<br>
Scan type : Interlaced<br>
Scan type, store method : Interleaved fields<br>
Scan order : Bottom Field First<br>
Bits/(Pixel*Frame) : 3.782<br>
Stream size : 4.40 GiB (99%)<br>
Title : Core Media Video<br>
Writing library : Apple<br>
Language : English<br>
Encoded date : 2022-05-18 17:25:09 UTC<br>
Tagged date : 2022-05-18 17:25:21 UTC<br>
Color primaries : BT.709<br>
Transfer characteristics : BT.709<br>
Matrix coefficients : BT.709<br>
<br>
<b>Audio</b><br>
ID : 2<br>
Format : PCM<br>
Format settings : Little / Signed<br>
Codec ID : lpcm<br>
Duration : 3 min 20 s<br>
Bit rate mode : Constant<br>
Bit rate : 2 117 kb/s<br>
Channel(s) : 2 channels<br>
Channel layout : L R<br>
Sampling rate : 44.1 kHz<br>
Bit depth : 24 bits<br>
Stream size : 50.7 MiB (1%)<br>
Title : Core Media Audio<br>
Language : English<br>
Encoded date : 2022-05-18 17:25:09 UTC<br>
Tagged date : 2022-05-18 17:25:21 UTC<br>
<br>
<b>Other</b><br>
ID : 3<br>
Type : Time code<br>
Format : QuickTime TC<br>
Duration : 3 min 20 s<br>
Frame rate : 24.000 FPS<br>
Time code of first frame : 00:00:00:00<br>
Time code of last frame : 00:03:20:20<br>
Time code, stripped : Yes<br>
Title : Core Media Time Code<br>
Language : English<br>
Encoded date : 2022-05-18 17:25:09 UTC<br>
Tagged date : 2022-05-18 17:25:21 UTC</div>
</div><br>
<div class="bbCodeBlock bbCodeVfcHH HiddenContent">
<div class="attribution type">Hidden Content:</div>
<blockquote>You must reply before you can see the hidden data contained here.</blockquote>
</div></div>
<div class="messageTextEndMarker">&nbsp;</div>
</blockquote>
</article>]]></description>
                <author><![CDATA[von_3649]]></author>
                </item>

                
                <item>
                <title><![CDATA[【Requests】[REQ AUD] - Hoody (후디) Discography]]></title>
                <link><![CDATA[https://sharemania.us/threads/hoody-%ED%9B%84%EB%94%94-discography.222015/]]></link>
                <description><![CDATA[<article>
<blockquote class="messageText SelectQuoteContainer ugc baseHtml">
Hi was wondering if anyone can get these for me in FLAC format thank you <br>
<br>
<a href="https://www.discogs.com/release/16133736-Hoody-Departure" target="_blank" class="externalLink" rel="nofollow">https://www.discogs.com/release/16133736-Hoody-Departure</a><br>
<br>
<a href="https://www.discogs.com/release/9642318-Hoody-On-And-On" target="_blank" class="externalLink" rel="nofollow">https://www.discogs.com/release/9642318-Hoody-On-And-On</a>
<div class="messageTextEndMarker">&nbsp;</div>
</blockquote>
</article>]]></description>
                <author><![CDATA[Horanghae20]]></author>
                </item>

                
                <item>
                <title><![CDATA[【Requests】[REQ AUD] - Kylie Minogue - Say Something (F9 Radio Mix) in FLAC]]></title>
                <link><![CDATA[https://sharemania.us/threads/kylie-minogue-say-something-f9-radio-mix-in-flac.222016/]]></link>
                <description><![CDATA[<article>
<blockquote class="messageText SelectQuoteContainer ugc baseHtml">
<a href="https://www.discogs.com/release/16271907-Kylie-Disco" target="_blank" class="externalLink" rel="nofollow">https://www.discogs.com/release/16271907-Kylie-Disco</a><br>
<br>
Anyone have the F9 Radio Mix of Say Something that was released on the Japan edition of the Disco album in Flac please and thank you
<div class="messageTextEndMarker">&nbsp;</div>
</blockquote>
</article>]]></description>
                <author><![CDATA[Kieren]]></author>
                </item>

                </channel></rss>